<svg id="图层_1" data-name="图层 1" xmlns="http://www.w3.org/2000/svg" viewBox="0 0 481.89 360.61"><defs><style>.cls-1,.cls-25,.cls-27,.cls-30{fill:#2e82d1;}.cls-1,.cls-14,.cls-2,.cls-26{stroke:#2e82d1;stroke-miterlimit:10;}.cls-1{opacity:0.2;}.cls-2,.cls-26{fill:none;}.cls-14,.cls-2{stroke-width:0.5px;}.cls-3,.cls-6{font-size:10.64px;fill:#316abc;}.cls-3{font-family:SourceHanSansCN-Bold-GBpc-EUC-H, Source Han Sans CN;}.cls-4{letter-spacing:-0.03em;}.cls-5{letter-spacing:-0.02em;}.cls-25,.cls-30,.cls-6{font-family:SourceHanSansCN-Medium-GBpc-EUC-H, Source Han Sans CN;}.cls-7{letter-spacing:-0.01em;}.cls-8{letter-spacing:0em;}.cls-9{letter-spacing:-0.01em;}.cls-10{letter-spacing:-0.02em;}.cls-11{letter-spacing:-0.02em;}.cls-12{letter-spacing:0em;}.cls-13{letter-spacing:-0.02em;}.cls-14{fill:#fff;}.cls-15{letter-spacing:-0.03em;}.cls-16{letter-spacing:-0.02em;}.cls-17{letter-spacing:-0.01em;}.cls-18{letter-spacing:-0.01em;}.cls-19{letter-spacing:0em;}.cls-20{letter-spacing:0em;}.cls-21{letter-spacing:-0.08em;}.cls-22{letter-spacing:-0.02em;}.cls-23{letter-spacing:0em;}.cls-24{letter-spacing:-0.01em;}.cls-25{font-size:10px;}.cls-28{letter-spacing:-0.03em;}.cls-29{letter-spacing:-0.02em;}.cls-30{font-size:14px;}</style></defs><title>配图</title><path class="cls-1" d="M11.48,70.76H97.94a3.94,3.94,0,0,1,3.94,3.94v21a1.11,1.11,0,0,1-1.11,1.11H8.65a1.11,1.11,0,0,1-1.11-1.11v-21A3.94,3.94,0,0,1,11.48,70.76Z"/><path class="cls-2" d="M11.48,70.76H97.94a3.94,3.94,0,0,1,3.94,3.94v21a1.11,1.11,0,0,1-1.11,1.11H8.65a1.11,1.11,0,0,1-1.11-1.11v-21A3.94,3.94,0,0,1,11.48,70.76Z"/><rect class="cls-2" x="7.35" y="70.76" width="94.33" height="282.28" rx="3.65"/><rect class="cls-2" x="131.41" y="8.7" width="94.33" height="344.34" rx="4.03"/><path class="cls-1" d="M135.34,8.7H221.8a3.94,3.94,0,0,1,3.94,3.94v21a1.11,1.11,0,0,1-1.11,1.11H132.51a1.11,1.11,0,0,1-1.11-1.11v-21A3.94,3.94,0,0,1,135.34,8.7Z"/><path class="cls-2" d="M135.34,8.7H221.8a3.94,3.94,0,0,1,3.94,3.94v21a1.11,1.11,0,0,1-1.11,1.11H132.51a1.11,1.11,0,0,1-1.11-1.11v-21A3.94,3.94,0,0,1,135.34,8.7Z"/><path class="cls-1" d="M259.4,8.7h86.46a3.94,3.94,0,0,1,3.94,3.94v21a1.11,1.11,0,0,1-1.11,1.11H256.58a1.11,1.11,0,0,1-1.11-1.11v-21A3.94,3.94,0,0,1,259.4,8.7Z"/><path class="cls-2" d="M259.4,8.7h86.46a3.94,3.94,0,0,1,3.94,3.94v21a1.11,1.11,0,0,1-1.11,1.11H256.58a1.11,1.11,0,0,1-1.11-1.11v-21A3.94,3.94,0,0,1,259.4,8.7Z"/><path class="cls-1" d="M383.46,8.7h86.46a3.94,3.94,0,0,1,3.94,3.94v21a1.11,1.11,0,0,1-1.11,1.11H380.64a1.11,1.11,0,0,1-1.11-1.11v-21A3.94,3.94,0,0,1,383.46,8.7Z"/><path class="cls-2" d="M383.46,8.7h86.46a3.94,3.94,0,0,1,3.94,3.94v21a1.11,1.11,0,0,1-1.11,1.11H380.64a1.11,1.11,0,0,1-1.11-1.11v-21A3.94,3.94,0,0,1,383.46,8.7Z"/><text class="cls-3" transform="translate(39.98 86.81)">c<tspan class="cls-4" x="5.61" y="0">r</tspan><tspan class="cls-5" x="9.92" y="0">at</tspan><tspan x="20.27" y="0">es</tspan></text><text class="cls-6" transform="translate(24.59 134.84)">p<tspan class="cls-7" x="6.7" y="0">r</tspan><tspan class="cls-8" x="10.94" y="0">oc_mac</tspan><tspan class="cls-9" x="50.6" y="0">r</tspan><tspan x="54.83" y="0">o</tspan></text><text class="cls-6" transform="translate(21.56 198.74)">p<tspan class="cls-7" x="6.7" y="0">r</tspan><tspan class="cls-8" x="10.94" y="0">oc_mac</tspan><tspan class="cls-9" x="50.6" y="0">r</tspan><tspan x="54.83" y="0">o2</tspan></text><text class="cls-6" transform="translate(46.5 262.21)">syn</text><text class="cls-6" transform="translate(40.46 327.68)">qu<tspan class="cls-10" x="13.3" y="0">o</tspan><tspan class="cls-11" x="19.59" y="0">t</tspan><tspan class="cls-8" x="23.62" y="0">e</tspan></text><text class="cls-3" transform="translate(146.85 25.45)">Ru<tspan class="cls-10" x="14.04" y="0">s</tspan><tspan class="cls-12" x="19.06" y="0">t宏解释器</tspan></text><rect class="cls-2" x="255.47" y="8.7" width="94.33" height="344.34" rx="4.03"/><text class="cls-3" transform="translate(276.23 25.45)">Ru<tspan class="cls-13" x="14.04" y="0">s</tspan><tspan x="19.06" y="0">t编译器</tspan></text><rect class="cls-14" x="267.5" y="49.93" width="71.8" height="33.66"/><text class="cls-6" transform="translate(287.43 72.81)">源代码</text><rect class="cls-2" x="379.53" y="8.7" width="94.33" height="153.07" rx="2.68"/><text class="cls-3" transform="translate(394.97 25.45)">Ru<tspan class="cls-13" x="14.04" y="0">s</tspan><tspan x="19.06" y="0">t宏解释器</tspan></text><rect class="cls-14" x="391.56" y="49.93" width="71.8" height="33.66"/><text class="cls-6" transform="translate(398.83 63.81)">Decla<tspan class="cls-15" x="28.24" y="0">r</tspan><tspan class="cls-16" x="32.29" y="0">a</tspan><tspan x="38.23" y="0">ti</tspan><tspan class="cls-17" x="45.5" y="0">v</tspan><tspan x="51.23" y="0">e</tspan><tspan x="10.48" y="12.77">Mac</tspan><tspan class="cls-18" x="30.93" y="12.77">r</tspan><tspan class="cls-19" x="35.16" y="12.77">o</tspan><tspan class="cls-20" x="41.66" y="12.77">s</tspan></text><rect class="cls-14" x="391.56" y="113.96" width="71.8" height="33.66"/><text class="cls-6" transform="translate(393.79 134.84)"><tspan class="cls-21">T</tspan><tspan x="5.66" y="0">o</tspan><tspan class="cls-22" x="12.19" y="0">k</tspan><tspan x="18.06" y="0">en</tspan><tspan class="cls-15" x="30.71" y="0">S</tspan><tspan class="cls-23" x="36.88" y="0">t</tspan><tspan class="cls-18" x="41.09" y="0">r</tspan><tspan class="cls-24" x="45.33" y="0">e</tspan><tspan x="51.18" y="0">am</tspan></text><text class="cls-25" transform="translate(432.56 102.11)">解析</text><line class="cls-26" x1="426.69" y1="83.59" x2="426.69" y2="111.09"/><polygon class="cls-27" points="424.7 110.5 426.69 113.96 428.69 110.5 424.7 110.5"/><rect class="cls-14" x="141.54" y="49.93" width="74.92" height="33.66"/><text class="cls-6" transform="translate(151.28 63.81)">P<tspan class="cls-7" x="6.88" y="0">r</tspan><tspan class="cls-20" x="11.12" y="0">o</tspan><tspan class="cls-28" x="17.65" y="0">c</tspan><tspan x="22.88" y="0">edu</tspan><tspan class="cls-15" x="42.19" y="0">r</tspan><tspan x="46.24" y="0">al</tspan><tspan x="9.62" y="12.77">Mac</tspan><tspan class="cls-18" x="30.07" y="12.77">r</tspan><tspan class="cls-19" x="34.31" y="12.77">o</tspan><tspan class="cls-20" x="40.81" y="12.77">s</tspan></text><rect class="cls-14" x="141.54" y="113.96" width="74.92" height="33.66"/><text class="cls-6" transform="translate(145.39 134.84)"><tspan class="cls-21">T</tspan><tspan x="5.66" y="0">o</tspan><tspan class="cls-22" x="12.19" y="0">k</tspan><tspan x="18.06" y="0">en</tspan><tspan class="cls-15" x="30.71" y="0">S</tspan><tspan class="cls-23" x="36.88" y="0">t</tspan><tspan class="cls-18" x="41.09" y="0">r</tspan><tspan class="cls-24" x="45.33" y="0">e</tspan><tspan x="51.18" y="0">am</tspan></text><text class="cls-25" transform="translate(183 102.11)">解析</text><line class="cls-26" x1="179.05" y1="83.59" x2="179.05" y2="111.09"/><polygon class="cls-27" points="177.06 110.5 179.05 113.96 181.05 110.5 177.06 110.5"/><rect class="cls-14" x="141.54" y="178.3" width="74.92" height="33.66"/><text class="cls-6" transform="translate(142.17 192.18)">p<tspan class="cls-18" x="6.7" y="0">r</tspan><tspan x="10.94" y="0">oc_mac</tspan><tspan class="cls-7" x="50.6" y="0">r</tspan><tspan class="cls-20" x="54.83" y="0">o2::</tspan><tspan class="cls-21" x="3.22" y="12.77">T</tspan><tspan x="8.88" y="12.77">o</tspan><tspan class="cls-22" x="15.42" y="12.77">k</tspan><tspan x="21.28" y="12.77">en</tspan><tspan class="cls-15" x="33.93" y="12.77">S</tspan><tspan class="cls-23" x="40.1" y="12.77">t</tspan><tspan class="cls-18" x="44.32" y="12.77">r</tspan><tspan class="cls-24" x="48.55" y="12.77">e</tspan><tspan x="54.41" y="12.77">am</tspan></text><line class="cls-26" x1="179.05" y1="147.94" x2="179.05" y2="175.43"/><polygon class="cls-27" points="177.06 174.85 179.05 178.31 181.05 174.85 177.06 174.85"/><rect class="cls-14" x="268.06" y="113.96" width="71.8" height="33.66"/><text class="cls-6" transform="translate(270.3 134.84)"><tspan class="cls-21">T</tspan><tspan x="5.66" y="0">o</tspan><tspan class="cls-22" x="12.19" y="0">k</tspan><tspan x="18.06" y="0">en</tspan><tspan class="cls-15" x="30.71" y="0">S</tspan><tspan class="cls-23" x="36.88" y="0">t</tspan><tspan class="cls-18" x="41.09" y="0">r</tspan><tspan class="cls-24" x="45.33" y="0">e</tspan><tspan x="51.18" y="0">am</tspan></text><text class="cls-25" transform="translate(309.07 102.11)">解析</text><line class="cls-26" x1="303.2" y1="83.59" x2="303.2" y2="111.09"/><polygon class="cls-27" points="301.2 110.5 303.2 113.96 305.19 110.5 301.2 110.5"/><rect class="cls-14" x="141.54" y="306.36" width="74.92" height="33.66"/><text class="cls-6" transform="translate(145.39 327.24)"><tspan class="cls-21">T</tspan><tspan x="5.66" y="0">o</tspan><tspan class="cls-22" x="12.19" y="0">k</tspan><tspan x="18.06" y="0">en</tspan><tspan class="cls-15" x="30.71" y="0">S</tspan><tspan class="cls-23" x="36.88" y="0">t</tspan><tspan class="cls-18" x="41.09" y="0">r</tspan><tspan class="cls-24" x="45.33" y="0">e</tspan><tspan x="51.18" y="0">am</tspan></text><line class="cls-26" x1="179.05" y1="275.99" x2="179.05" y2="303.49"/><polygon class="cls-27" points="177.06 302.9 179.05 306.36 181.05 302.9 177.06 302.9"/><text class="cls-25" transform="translate(356.14 119.79)">展开</text><text class="cls-25" transform="translate(231.51 119.79)">展开</text><line class="cls-26" x1="393.56" y1="130.79" x2="342.52" y2="130.79"/><polygon class="cls-27" points="343.1 128.79 339.65 130.79 343.1 132.78 343.1 128.79"/><line class="cls-26" x1="88.52" y1="130.79" x2="138.37" y2="130.79"/><polygon class="cls-27" points="137.78 132.78 141.24 130.79 137.78 128.79 137.78 132.78"/><line class="cls-26" x1="90.8" y1="195.14" x2="138.37" y2="195.14"/><polygon class="cls-27" points="137.78 197.13 141.24 195.14 137.78 193.14 137.78 197.13"/><line class="cls-26" x1="68.3" y1="259.48" x2="138.37" y2="259.48"/><polygon class="cls-27" points="137.78 261.48 141.24 259.49 137.78 257.49 137.78 261.48"/><line class="cls-26" x1="75.05" y1="323.83" x2="138.37" y2="323.83"/><polygon class="cls-27" points="137.78 325.83 141.24 323.83 137.78 321.84 137.78 325.83"/><rect class="cls-14" x="268.06" y="177.95" width="71.8" height="33.66"/><text class="cls-6" transform="translate(294.29 198.83)">A<tspan class="cls-29" x="6.62" y="0">S</tspan><tspan class="cls-20" x="12.85" y="0">T</tspan></text><line class="cls-26" x1="303.2" y1="147.59" x2="303.2" y2="175.08"/><polygon class="cls-27" points="301.2 174.5 303.2 177.95 305.19 174.5 301.2 174.5"/><rect class="cls-14" x="141.54" y="242.33" width="74.92" height="33.66"/><text class="cls-6" transform="translate(169.38 263.21)">A<tspan class="cls-29" x="6.62" y="0">S</tspan><tspan class="cls-20" x="12.85" y="0">T</tspan></text><line class="cls-26" x1="179.05" y1="211.97" x2="179.05" y2="239.46"/><polygon class="cls-27" points="177.06 238.88 179.05 242.33 181.05 238.88 177.06 238.88"/><rect class="cls-14" x="268.06" y="296.68" width="71.8" height="33.66"/><text class="cls-6" transform="translate(282.58 310.56)">Machine<tspan x="8.32" y="12.77">Code</tspan></text><line class="cls-26" x1="303.2" y1="266.32" x2="303.2" y2="293.81"/><polygon class="cls-27" points="301.2 293.23 303.2 296.68 305.19 293.23 301.2 293.23"/><line class="cls-26" x1="303.2" y1="211.62" x2="303.2" y2="239.11"/><polygon class="cls-27" points="301.2 238.53 303.2 241.98 305.19 238.53 301.2 238.53"/><text class="cls-30" transform="translate(296.38 253.81)">...</text><line class="cls-26" x1="53.95" y1="142.01" x2="53.95" y2="183.92"/><polygon class="cls-27" points="51.95 183.34 53.95 186.79 55.94 183.34 51.95 183.34"/><polyline class="cls-26" points="216.47 323.83 240.36 323.83 240.36 130.79 264.63 130.79"/><polygon class="cls-27" points="264.04 132.78 267.5 130.79 264.04 128.79 264.04 132.78"/></svg>