<svg id="图层_1" data-name="图层 1" xmlns="http://www.w3.org/2000/svg" viewBox="0 0 481.89 521.59"><defs><style>.cls-1{fill:#fff;}.cls-1,.cls-2,.cls-3,.cls-8{stroke:#2e82d1;stroke-miterlimit:10;}.cls-1,.cls-2{stroke-width:0.5px;}.cls-2,.cls-8{fill:none;}.cls-15,.cls-3,.cls-60,.cls-61,.cls-9{fill:#2e82d1;}.cls-3{opacity:0.1;}.cls-4{font-size:10.11px;}.cls-10,.cls-16,.cls-33,.cls-34,.cls-4,.cls-5,.cls-6{fill:#316abc;}.cls-16,.cls-4,.cls-6{font-family:SourceHanSansCN-Bold-GBpc-EUC-H, Source Han Sans CN;}.cls-16,.cls-33,.cls-5{font-size:8.27px;}.cls-15,.cls-5,.cls-60,.cls-61{font-family:SourceHanSansCN-Medium-GBpc-EUC-H, Source Han Sans CN;}.cls-6{font-size:9.78px;}.cls-7{letter-spacing:-0.01em;}.cls-11{letter-spacing:-0.02em;}.cls-12{letter-spacing:0em;}.cls-13{letter-spacing:-0.02em;}.cls-14{letter-spacing:0em;}.cls-15{font-size:11.03px;}.cls-17{letter-spacing:-0.03em;}.cls-18{letter-spacing:-0.01em;}.cls-19{letter-spacing:-0.02em;}.cls-20{letter-spacing:-0.02em;}.cls-21{letter-spacing:-0.03em;}.cls-22{letter-spacing:-0.03em;}.cls-23{letter-spacing:0em;}.cls-24{letter-spacing:0.01em;}.cls-25{letter-spacing:0em;}.cls-26{letter-spacing:-0.01em;}.cls-27{letter-spacing:-0.02em;}.cls-28{letter-spacing:0em;}.cls-29{letter-spacing:0em;}.cls-30{letter-spacing:-0.01em;}.cls-31{letter-spacing:-0.03em;}.cls-32{letter-spacing:-0.01em;}.cls-33,.cls-34{font-family:SourceHanSansCN-Normal-GBpc-EUC-H, Source Han Sans CN;}.cls-34,.cls-60,.cls-61{font-size:7.35px;}.cls-35{letter-spacing:-0.01em;}.cls-36{letter-spacing:-0.01em;}.cls-37{letter-spacing:-0.49em;}.cls-38{letter-spacing:0em;}.cls-39{opacity:0.8;}.cls-40{letter-spacing:-0.04em;}.cls-41{letter-spacing:-0.02em;}.cls-42{letter-spacing:-0.03em;}.cls-43{letter-spacing:0em;}.cls-44{letter-spacing:-0.01em;}.cls-45{letter-spacing:-0.49em;}.cls-46{letter-spacing:-0.01em;}.cls-47{letter-spacing:-0.03em;}.cls-48{letter-spacing:-0.02em;}.cls-49{letter-spacing:-0.02em;}.cls-50{letter-spacing:-0.46em;}.cls-51{letter-spacing:-0.04em;}.cls-52{letter-spacing:-0.04em;}.cls-53{letter-spacing:-0.46em;}.cls-54{letter-spacing:-0.03em;}.cls-55{letter-spacing:0em;}.cls-56{letter-spacing:-0.01em;}.cls-57{letter-spacing:-0.46em;}.cls-58{letter-spacing:-0.03em;}.cls-59{letter-spacing:-0.02em;}.cls-60{letter-spacing:-0.02em;}</style></defs><title>配图</title><polygon class="cls-1" points="237.47 44.83 185.98 44.83 185.98 6.09 225.46 6.09 237.47 15.54 237.47 44.83"/><polyline class="cls-2" points="225.52 6.09 225.52 15.54 237.47 15.54"/><polygon class="cls-1" points="298.34 44.83 246.85 44.83 246.85 6.09 286.33 6.09 298.34 15.54 298.34 44.83"/><polyline class="cls-2" points="286.39 6.09 286.39 15.54 298.34 15.54"/><rect class="cls-3" x="17.95" y="426.28" width="200.03" height="77.66" rx="2.71"/><rect class="cls-2" x="17.95" y="426.28" width="200.03" height="77.66" rx="2.71"/><rect class="cls-2" x="7.35" y="186.54" width="468.78" height="326.95" rx="8.11"/><text class="cls-4" transform="translate(21.62 204.3)">Liquid</text><text class="cls-5" transform="translate(21.62 146.49)">开发者</text><rect class="cls-3" x="17.95" y="217.29" width="200.03" height="182.14" rx="2.71"/><rect class="cls-2" x="17.95" y="217.29" width="200.03" height="182.14" rx="2.71"/><rect class="cls-3" x="236.66" y="217.29" width="229.75" height="286.65" rx="2.71"/><rect class="cls-2" x="236.66" y="217.29" width="229.75" height="286.65" rx="2.71"/><rect class="cls-1" x="24.9" y="452.79" width="58.88" height="41.5"/><rect class="cls-1" x="88.89" y="452.79" width="58.88" height="41.5"/><rect class="cls-1" x="152.87" y="452.79" width="58.88" height="41.5"/><text class="cls-6" transform="translate(24.9 438.99)">Utils</text><text class="cls-6" transform="translate(28.57 232.93)">Lang</text><text class="cls-6" transform="translate(245.6 232.93)">Co<tspan class="cls-7" x="12.54" y="0">r</tspan><tspan x="16.69" y="0">e</tspan></text><rect class="cls-1" x="28" y="245.88" width="180.65" height="37.12"/><rect class="cls-1" x="245.89" y="246.23" width="169.36" height="37.12"/><rect class="cls-1" x="28" y="299.71" width="180.65" height="37.12"/><rect class="cls-1" x="28" y="352.26" width="180.65" height="27.84"/><line class="cls-8" x1="118.51" y1="283" x2="118.51" y2="297.2"/><polygon class="cls-9" points="116.77 296.69 118.51 299.71 120.25 296.69 116.77 296.69"/><line class="cls-8" x1="118.51" y1="336.82" x2="118.51" y2="350.29"/><polygon class="cls-9" points="116.77 349.78 118.51 352.8 120.25 349.78 116.77 349.78"/><rect class="cls-1" x="245.49" y="297.41" width="169.76" height="27.84"/><rect class="cls-1" x="245.49" y="345.49" width="78.01" height="38.2"/><rect class="cls-1" x="337.28" y="345.49" width="78.01" height="38.2"/><line class="cls-8" x1="330.57" y1="284" x2="330.57" y2="295.44"/><polygon class="cls-9" points="328.83 294.93 330.57 297.95 332.32 294.93 328.83 294.93"/><line class="cls-8" x1="422.18" y1="442.23" x2="422.18" y2="453.67"/><polygon class="cls-9" points="420.44 453.16 422.19 456.18 423.93 453.16 420.44 453.16"/><polyline class="cls-8" points="330.37 325.15 330.37 336.28 284.46 336.28 284.46 342.26"/><polygon class="cls-9" points="282.21 341.6 284.46 345.49 286.7 341.6 282.21 341.6"/><polyline class="cls-8" points="330.37 325.15 330.37 336.28 376.29 336.28 376.29 342.26"/><polygon class="cls-9" points="374.05 341.6 376.29 345.49 378.53 341.6 374.05 341.6"/><polyline class="cls-8" points="242.97 102.75 242.97 55.56 211.75 55.56 211.75 48.06"/><polygon class="cls-9" points="214 48.71 211.75 44.83 209.51 48.71 214 48.71"/><polyline class="cls-8" points="242.97 102.75 242.97 55.56 274.18 55.56 274.18 48.06"/><polygon class="cls-9" points="276.42 48.71 274.18 44.83 271.93 48.71 276.42 48.71"/><rect class="cls-1" x="293.9" y="404.03" width="72.98" height="38.2"/><rect class="cls-1" x="385.69" y="404.03" width="72.98" height="38.2"/><rect class="cls-1" x="385.69" y="457.39" width="72.98" height="36.89"/><polyline class="cls-8" points="376.27 383.69 376.27 394.82 330.35 394.82 330.35 400.8"/><polygon class="cls-9" points="328.11 400.14 330.35 404.03 332.6 400.14 328.11 400.14"/><polyline class="cls-8" points="376.27 383.69 376.27 394.82 422.19 394.82 422.19 400.8"/><polygon class="cls-9" points="419.94 400.14 422.19 404.03 424.43 400.14 419.94 400.14"/><polyline class="cls-8" points="353.33 186.54 353.33 166.79 240.28 166.79 240.28 148.33"/><polygon class="cls-9" points="242.53 148.98 240.28 145.1 238.04 148.98 242.53 148.98"/><polyline class="cls-8" points="152.37 145.1 152.37 167.07 112.32 167.07 112.32 183.31"/><polygon class="cls-9" points="110.08 182.65 112.32 186.54 114.56 182.65 110.08 182.65"/><path class="cls-10" d="M33.67,117.25c3.57,0,7.14-5,7.14-10.71s-2.14-7.86-7.14-7.86c-4.29,0-7.14,2.14-7.14,7.86S30.1,117.25,33.67,117.25Z"/><path class="cls-10" d="M43.11,128.68v-7.39A1.09,1.09,0,0,0,42,120.2H25.32a1.09,1.09,0,0,0-1.09,1.09v7.39H18s0-7.14,3.57-8.57l7.15-2.86s1.42,1.43,5,1.43,5-1.43,5-1.43l7.14,2.86c3.57,1.43,3.57,8.57,3.57,8.57Z"/><rect class="cls-10" x="23.21" y="131.88" width="20.95" height="0.99"/><path class="cls-10" d="M41.66,121.07h-16a.58.58,0,0,0-.58.57v9.94a.57.57,0,0,0,.58.57h16a.56.56,0,0,0,.57-.57v-9.94A.57.57,0,0,0,41.66,121.07ZM31,128.74l-.34.34-2.21-2.21-.35-.34L30.63,124l.34.35-2.21,2.21Zm1,1.86-.58-.27L34.81,123l.59.28Zm6.75-3.73h0l-2.21,2.21-.34-.34,2.21-2.21-2.21-2.21.34-.35,2.21,2.21.35.35Z"/><rect class="cls-3" x="100.07" y="63.65" width="193.2" height="95.61" rx="2.71"/><rect class="cls-2" x="100.07" y="63.65" width="193.2" height="95.61" rx="2.71"/><text class="cls-6" transform="translate(112.32 81.45)"><tspan class="cls-7">c</tspan><tspan x="5.03" y="0">a</tspan><tspan class="cls-7" x="10.81" y="0">r</tspan><tspan class="cls-11" x="14.96" y="0">g</tspan><tspan class="cls-12" x="20.61" y="0">o</tspan><tspan x="26.76" y="0">-liquid</tspan></text><rect class="cls-1" x="111.81" y="102.75" width="80.77" height="42.73"/><rect class="cls-1" x="201.6" y="102.75" width="80.77" height="42.73"/><rect class="cls-3" x="330.57" y="63.65" width="145.7" height="95.61" rx="2.71"/><rect class="cls-2" x="330.57" y="63.65" width="145.7" height="95.61" rx="2.71"/><text class="cls-6" transform="translate(337.58 81.45)">Ru<tspan class="cls-13" x="12.89" y="0">s</tspan><tspan class="cls-14" x="17.51" y="0">t编译工具链</tspan></text><rect class="cls-1" x="339.72" y="93.04" width="59.63" height="27.16"/><rect class="cls-1" x="339.72" y="125.08" width="59.63" height="27.16"/><rect class="cls-1" x="407.89" y="125.08" width="59.63" height="27.16"/><text class="cls-15" transform="translate(432.95 140.49)">...</text><rect class="cls-1" x="407.89" y="93.04" width="59.63" height="27.16"/><text class="cls-16" transform="translate(34.74 469.47)">abi-<tspan class="cls-17" x="15.79" y="0">c</tspan><tspan x="19.89" y="0">odec</tspan></text><text class="cls-16" transform="translate(105.56 257.62)">mac<tspan class="cls-18" x="17.22" y="0">r</tspan><tspan x="20.72" y="0">o</tspan></text><text class="cls-16" transform="translate(315.46 257.97)"><tspan class="cls-19">s</tspan><tspan class="cls-20" x="3.9" y="0">t</tspan><tspan x="7.22" y="0">o</tspan><tspan class="cls-21" x="12.4" y="0">r</tspan><tspan x="15.74" y="0">a</tspan><tspan class="cls-20" x="20.63" y="0">g</tspan><tspan x="25.41" y="0">e</tspan></text><text class="cls-16" transform="translate(114.33 311.44)">IR</text><text class="cls-16" transform="translate(99.78 364)"><tspan class="cls-22">c</tspan><tspan class="cls-23" x="4.11" y="0">od</tspan><tspan class="cls-24" x="14.61" y="0">e</tspan><tspan class="cls-25" x="19.51" y="0">-</tspan><tspan class="cls-20" x="22.57" y="0">g</tspan><tspan x="27.35" y="0">en</tspan></text><text class="cls-16" transform="translate(102.99 469.47)">abi-<tspan class="cls-20" x="15.79" y="0">g</tspan><tspan x="20.56" y="0">en</tspan></text><text class="cls-16" transform="translate(172.31 469.47)">alloc</text><text class="cls-16" transform="translate(322.94 309.15)">env</text><text class="cls-16" transform="translate(273.08 357.22)">types</text><text class="cls-16" transform="translate(362.26 362.45)">engine</text><text class="cls-16" transform="translate(312.03 415.77)"><tspan class="cls-26">o</tspan><tspan class="cls-27" x="5.13" y="0">ff</tspan><tspan x="10.93" y="0">-chain</tspan></text><text class="cls-16" transform="translate(404.04 420.99)">on-chain</text><text class="cls-16" transform="translate(412.85 468.68)">FBEI</text><text class="cls-16" transform="translate(143.77 120.55)">n<tspan class="cls-28" x="5.3" y="0">e</tspan><tspan x="10.07" y="0">w</tspan></text><text class="cls-16" transform="translate(231.64 120.55)">build</text><text class="cls-16" transform="translate(359.49 104.78)">ru<tspan class="cls-19" x="8.87" y="0">s</tspan><tspan class="cls-20" x="12.78" y="0">t</tspan><tspan class="cls-29" x="16.09" y="0">c</tspan></text><text class="cls-16" transform="translate(349.32 136.81)"><tspan class="cls-30">w</tspan><tspan x="7.04" y="0">asm-o</tspan><tspan class="cls-31" x="32.22" y="0">p</tspan><tspan x="37.32" y="0">t</tspan></text><text class="cls-16" transform="translate(426.58 104.78)"><tspan class="cls-30">c</tspan><tspan x="4.26" y="0">a</tspan><tspan class="cls-32" x="9.15" y="0">r</tspan><tspan class="cls-20" x="12.65" y="0">g</tspan><tspan x="17.43" y="0">o</tspan></text><text class="cls-33" transform="translate(60.28 204.3)">嵌入式领域特定语言</text><text class="cls-33" transform="translate(53.47 438.99)">辅助模块</text><text class="cls-34" transform="translate(57.15 232.93)">将用户合约代码展开为对Co<tspan class="cls-35" x="89.94" y="0">r</tspan><tspan x="92.64" y="0">e中API的调用</tspan></text><text class="cls-34" transform="translate(274.18 232.93)">高级数据结<tspan class="cls-36" x="36.75" y="0">构</tspan><tspan class="cls-37" x="44.04" y="0">、</tspan><tspan class="cls-38" x="47.78" y="0">区块链API及内置函数封装</tspan></text><g class="cls-39"><text class="cls-34" transform="translate(34.16 482.46)">ABI编解码器</text></g><g class="cls-39"><text class="cls-34" transform="translate(67.06 268.06)">用于标注合约代码的辅助宏集合<tspan class="cls-40" x="8.87" y="8.82">（</tspan><tspan class="cls-41" x="15.96" y="8.82">c</tspan><tspan x="19.51" y="8.82">ont</tspan><tspan class="cls-42" x="31.09" y="8.82">r</tspan><tspan class="cls-43" x="33.69" y="8.82">a</tspan><tspan class="cls-35" x="37.79" y="8.82">c</tspan><tspan class="cls-44" x="41.43" y="8.82">t</tspan><tspan class="cls-45" x="44.08" y="8.82">、</tspan><tspan x="47.82" y="8.82">Inou</tspan><tspan class="cls-46" x="63.23" y="8.82">t</tspan><tspan class="cls-37" x="65.87" y="8.82">、</tspan><tspan class="cls-47" x="69.61" y="8.82">S</tspan><tspan class="cls-48" x="73.77" y="8.82">t</tspan><tspan class="cls-49" x="76.31" y="8.82">at</tspan><tspan class="cls-40" x="82.91" y="8.82">e</tspan><tspan class="cls-50" x="86.68" y="8.82">）</tspan></text></g><g class="cls-39"><text class="cls-34" transform="translate(301.17 268.42)">高级数据结构集合<tspan class="cls-51" x="-53.2" y="8.82">（</tspan><tspan x="-46.12" y="8.82">单值容</tspan><tspan class="cls-36" x="-24.06" y="8.82">器</tspan><tspan class="cls-37" x="-16.78" y="8.82">、</tspan><tspan class="cls-38" x="-13.04" y="8.82">动态数</tspan><tspan class="cls-36" x="9.01" y="8.82">组</tspan><tspan class="cls-37" x="16.3" y="8.82">、</tspan><tspan x="20.04" y="8.82">Mappin</tspan><tspan class="cls-36" x="45.52" y="8.82">g</tspan><tspan class="cls-37" x="49.55" y="8.82">、</tspan><tspan x="53.29" y="8.82">可迭代Mappin</tspan><tspan class="cls-52" x="100.82" y="8.82">g</tspan><tspan class="cls-53" x="104.65" y="8.82">）</tspan></text></g><g class="cls-39"><text class="cls-34" transform="translate(103.81 321.89)">中间语言<tspan x="-11.03" y="8.82">抽象语法树定义</tspan></text></g><g class="cls-39"><text class="cls-34" transform="translate(96.46 374.44)">自动代码生成</text></g><g class="cls-39"><text class="cls-34" transform="translate(90.62 482.46)">ABI生成代码展开</text></g><g class="cls-39"><text class="cls-34" transform="translate(156.4 482.46)">动态内存分配器</text></g><g class="cls-39"><text class="cls-34" transform="translate(288.06 319.59)">区块链API及内置函数封装</text></g><g class="cls-39"><text class="cls-34" transform="translate(254.9 367.67)">基本数据类型定义<tspan class="cls-51" x="-3.11" y="8.82">（</tspan><tspan class="cls-54" x="3.97" y="8.82">S</tspan><tspan class="cls-55" x="8.13" y="8.82">trin</tspan><tspan class="cls-46" x="20.05" y="8.82">g</tspan><tspan class="cls-37" x="24.08" y="8.82">、</tspan><tspan x="27.82" y="8.82">Add</tspan><tspan class="cls-56" x="41.28" y="8.82">r</tspan><tspan x="43.99" y="8.82">es</tspan><tspan class="cls-51" x="51.43" y="8.82">s</tspan><tspan class="cls-57" x="54.56" y="8.82">）</tspan></text></g><g class="cls-39"><text class="cls-34" transform="translate(354.04 372.89)">合约执行引擎</text></g><g class="cls-39"><text class="cls-34" transform="translate(297.12 426.21)">用于合约单元测试的<tspan x="7.35" y="8.82">模拟区块链环境</tspan></text></g><g class="cls-39"><text class="cls-34" transform="translate(396.26 431.43)">区块链接口封装</text></g><g class="cls-39"><text class="cls-34" transform="translate(401.5 480.12)">FIS<tspan class="cls-58" x="10.47" y="0">C</tspan><tspan x="14.91" y="0">O B</tspan><tspan class="cls-58" x="26.76" y="0">C</tspan><tspan x="31.2" y="0">OS</tspan><tspan x="-1.57" y="8.82">环境接口规范</tspan></text></g><text class="cls-34" transform="translate(112.32 93.04)">Liquid合约开发辅助工具</text><g class="cls-39"><text class="cls-34" transform="translate(130.32 132.88)">创建合约模板</text></g><g class="cls-39"><text class="cls-34" transform="translate(205.76 132.88)">Liquid合约构建及优化</text></g><g class="cls-39"><text class="cls-34" transform="translate(343.84 114.76)">Ru<tspan class="cls-59" x="9.03" y="0">s</tspan><tspan class="cls-55" x="12.27" y="0">t语言编译器</tspan></text></g><g class="cls-39"><text class="cls-34" transform="translate(358.69 146.8)">优化器</text></g><g class="cls-39"><text class="cls-34" transform="translate(417.49 114.76)">包管理+构建</text></g><text class="cls-60" transform="translate(190.14 30.49)">W<tspan class="cls-43" x="6.45" y="0">asm字节码</tspan></text><text class="cls-61" transform="translate(259.37 30.49)">合约ABI</text><line class="cls-8" x1="217.98" y1="308.36" x2="234.14" y2="308.36"/><polygon class="cls-9" points="233.63 310.11 236.66 308.36 233.63 306.62 233.63 310.11"/><line class="cls-8" x1="330.2" y1="120.2" x2="295.78" y2="120.2"/><polygon class="cls-9" points="296.3 118.45 293.27 120.2 296.3 121.94 296.3 118.45"/><line class="cls-8" x1="97.56" y1="120.75" x2="59.66" y2="120.75"/><polygon class="cls-9" points="97.05 119 100.07 120.75 97.05 122.49 97.05 119"/><polygon class="cls-9" points="60.17 119 57.15 120.75 60.17 122.49 60.17 119"/><line class="cls-8" x1="220.49" y1="459.31" x2="234.14" y2="459.31"/><polygon class="cls-9" points="221 461.06 217.98 459.31 221 457.56 221 461.06"/><polygon class="cls-9" points="233.63 461.06 236.66 459.31 233.63 457.56 233.63 461.06"/><text class="cls-61" transform="translate(267.29 178.09)">展开后的合约代码</text><text class="cls-61" transform="translate(124.19 178.09)">开发</text></svg>