<?xml version="1.0" encoding="iso-8859-1"?>
<!-- Generator: Adobe Illustrator 19.0.0, SVG Export Plug-In . SVG Version: 6.00 Build 0)  -->
<svg version="1.1" id="Layer_1" xmlns="http://www.w3.org/2000/svg" xmlns:xlink="http://www.w3.org/1999/xlink" x="0px" y="0px"
	 viewBox="0 0 342.005 342.005" style="enable-background:new 0 0 342.005 342.005;" xml:space="preserve">
<g>
	<g>
		<path d="M337.311,46.287l-50.115,50.115l-32.804-8.791l-8.791-32.804l50.115-50.115c-25.641-9.733-55.711-4.337-76.365,16.312
			c-21.099,21.099-26.327,52.05-15.708,78.044L78.229,224.468c-20.705-6.502-44.227-1.587-60.636,14.822
			C0.297,256.586-4.224,281.766,3.932,303.24l41.969-41.969l27.474,7.363l7.363,27.474l-41.969,41.969
			c21.473,8.151,46.653,3.63,63.949-13.66c16.41-16.41,21.325-39.926,14.822-60.636L242.96,138.36
			c25.994,10.624,56.945,5.391,78.044-15.708C341.648,101.998,347.049,71.928,337.311,46.287z"/>
		<path d="M87.434,136.548l37.35-37.35l-13.67-51.021l-51.021-13.67l-37.35,37.35l13.67,51.021L87.434,136.548z M57.667,69.43
			c8.888-8.888,23.301-8.888,32.184,0c8.888,8.888,8.888,23.301,0,32.189c-8.888,8.888-23.301,8.888-32.189,0
			C48.778,92.731,48.778,78.318,57.667,69.43z"/>
		<path d="M208.369,239.465v52.823l45.742,26.409l45.742-26.409v-52.823l-45.742-26.409L208.369,239.465z M276.874,265.879
			c0,12.57-10.189,22.758-22.758,22.758c-12.57,0-22.758-10.189-22.758-22.758c0-12.57,10.189-22.758,22.758-22.758
			C266.686,243.115,276.874,253.309,276.874,265.879z"/>
	</g>
</g>
<g>
</g>
<g>
</g>
<g>
</g>
<g>
</g>
<g>
</g>
<g>
</g>
<g>
</g>
<g>
</g>
<g>
</g>
<g>
</g>
<g>
</g>
<g>
</g>
<g>
</g>
<g>
</g>
<g>
</g>
</svg>
