<?xml version="1.0" encoding="UTF-8" standalone="no"?>
<svg
   xmlns:dc="http://purl.org/dc/elements/1.1/"
   xmlns:cc="http://creativecommons.org/ns#"
   xmlns:rdf="http://www.w3.org/1999/02/22-rdf-syntax-ns#"
   xmlns:svg="http://www.w3.org/2000/svg"
   xmlns="http://www.w3.org/2000/svg"
   xmlns:sodipodi="http://sodipodi.sourceforge.net/DTD/sodipodi-0.dtd"
   xmlns:inkscape="http://www.inkscape.org/namespaces/inkscape"
   version="1.1"
   id="Icons"
   x="0px"
   y="0px"
   viewBox="0 0 28 24"
   xml:space="preserve"
   sodipodi:docname="experience.svg"
   width="28"
   height="24"
   inkscape:version="1.0.2-2 (e86c870879, 2021-01-15)"><metadata
   id="metadata106"><rdf:RDF><cc:Work
       rdf:about=""><dc:format>image/svg+xml</dc:format><dc:type
         rdf:resource="http://purl.org/dc/dcmitype/StillImage" /><dc:title></dc:title></cc:Work></rdf:RDF></metadata><defs
   id="defs104" /><sodipodi:namedview
   pagecolor="#ffffff"
   bordercolor="#666666"
   borderopacity="1"
   objecttolerance="10"
   gridtolerance="10"
   guidetolerance="10"
   inkscape:pageopacity="0"
   inkscape:pageshadow="2"
   inkscape:window-width="1280"
   inkscape:window-height="738"
   id="namedview102"
   showgrid="false"
   fit-margin-top="0"
   fit-margin-left="0"
   fit-margin-right="0"
   fit-margin-bottom="0"
   inkscape:zoom="16.46875"
   inkscape:cx="14"
   inkscape:cy="-0.14421252"
   inkscape:window-x="-6"
   inkscape:window-y="-6"
   inkscape:window-maximized="1"
   inkscape:current-layer="Icons" />
<style
   type="text/css"
   id="style79">
	.st0{fill:none;stroke:#000000;stroke-width:2;stroke-linecap:round;stroke-linejoin:round;stroke-miterlimit:10;}
	.st1{fill:none;stroke:#000000;stroke-width:2;stroke-linejoin:round;stroke-miterlimit:10;}
</style>
<polyline
   class="st0"
   points="8,15 11,18 8,21 "
   id="polyline81"
   transform="translate(-2,-4)" />
<line
   class="st0"
   x1="1"
   y1="7"
   x2="27"
   y2="7"
   id="line83" />
<g
   id="g87"
   transform="translate(-2,-4)">
	<path
   d="M 7,9 C 6.7,9 6.5,8.9 6.3,8.7 6.1,8.5 6,8.3 6,8 6,7.7 6.1,7.5 6.3,7.3 6.3,7.3 6.4,7.2 6.4,7.2 6.5,7.2 6.5,7.1 6.6,7.1 6.7,7 6.7,7 6.8,7 c 0.1,0 0.3,0 0.4,0 0.1,0 0.1,0 0.2,0.1 0.1,0 0.1,0.1 0.2,0.1 0,0 0.1,0.1 0.1,0.1 C 7.8,7.4 7.9,7.5 7.9,7.6 8,7.7 8,7.9 8,8 8,8.1 8,8.3 7.9,8.4 7.9,8.5 7.8,8.6 7.7,8.7 7.5,8.9 7.3,9 7,9 Z"
   id="path85" />
</g>
<g
   id="g91"
   transform="translate(-2,-4)">
	<path
   d="M 10,9 C 9.7,9 9.5,8.9 9.3,8.7 9.1,8.5 9,8.3 9,8 9,7.9 9,7.7 9.1,7.6 9.2,7.5 9.2,7.4 9.3,7.3 9.4,7.2 9.5,7.1 9.6,7.1 10,6.9 10.4,7 10.7,7.3 10.8,7.4 10.9,7.5 10.9,7.6 11,7.7 11,7.9 11,8 11,8.3 10.9,8.5 10.7,8.7 10.5,8.9 10.3,9 10,9 Z"
   id="path89" />
</g>
<g
   id="g95"
   transform="translate(-2,-4)">
	<path
   d="M 13,9 C 12.9,9 12.7,9 12.6,8.9 12.5,8.8 12.4,8.8 12.3,8.7 12.2,8.6 12.1,8.5 12.1,8.4 12,8.3 12,8.1 12,8 c 0,-0.1 0,-0.3 0.1,-0.4 0.1,-0.1 0.1,-0.2 0.2,-0.3 0.4,-0.4 1,-0.4 1.4,0 0.1,0.1 0.2,0.2 0.2,0.3 C 14,7.7 14,7.9 14,8 14,8.1 14,8.3 13.9,8.4 13.8,8.5 13.8,8.6 13.7,8.7 13.5,8.9 13.3,9 13,9 Z"
   id="path93" />
</g>
<path
   class="st0"
   d="M 25,1 H 3 C 1.9,1 1,1.9 1,3 v 18 c 0,1.1 0.9,2 2,2 h 22 c 1.1,0 2,-0.9 2,-2 V 3 C 27,1.9 26.1,1 25,1 Z"
   id="path97" />
<line
   class="st0"
   x1="12"
   y1="17"
   x2="16"
   y2="17"
   id="line99" />
</svg>
