<svg id="图层_1" data-name="图层 1" xmlns="http://www.w3.org/2000/svg" viewBox="0 0 160 80"><defs><style>.cls-1{fill:#194e9e;}.cls-2{fill:#dc1e2a;}.cls-3{fill:#ed1c27;}</style></defs><title>readthedoc-logo</title><polygon class="cls-1" points="33.57 44.5 12.77 44.52 18.7 11.33 8.87 11.33 1.66 52.02 32.24 52.02 33.57 44.5"/><path class="cls-1" d="M93,50.88H107.1l5.09-29.19H103.1L99.37,43.61H94a2.1,2.1,0,0,1-2.23-2.51l3.37-19.4h-9.1L83,39.58c-1.42,6.06,2.71,11.69,10,11.3"/><path class="cls-1" d="M145.4,44.62a10.9,10.9,0,0,1-1.77.36c-.53.05-1.1.08-1.72.08a9,9,0,0,1-2.79-.41,4.47,4.47,0,0,1-2-1.32A5.06,5.06,0,0,1,136,40.86a10.82,10.82,0,0,1,.12-3.76,15.69,15.69,0,0,1,1-3.44,10.28,10.28,0,0,1,1.8-2.87,8.66,8.66,0,0,1,2.58-1.95,7.32,7.32,0,0,1,3.29-.73,13.67,13.67,0,0,1,1.72.08,13.51,13.51,0,0,1,1.73.35Zm6-33.51-2,11.53a9.71,9.71,0,0,0-2-.35q-1.05-.09-2-.09a16.49,16.49,0,0,0-6.21,1.17,17.42,17.42,0,0,0-8.92,7.91,19,19,0,0,0-2.06,5.82,15.83,15.83,0,0,0,0,6.6,9.39,9.39,0,0,0,2.43,4.42,10.19,10.19,0,0,0,4.26,2.49,18.27,18.27,0,0,0,5.43.78H152l7-40.27Z"/><path class="cls-1" d="M69.12,44.36a12,12,0,0,1-1.77.35c-.52,0-1.1.08-1.72.08a9,9,0,0,1-2.79-.41,4.47,4.47,0,0,1-2-1.32,5.06,5.06,0,0,1-1.07-2.47,11.08,11.08,0,0,1,.12-3.76,16.25,16.25,0,0,1,1-3.44,10.31,10.31,0,0,1,1.81-2.87,8.62,8.62,0,0,1,2.57-1.95,7.33,7.33,0,0,1,3.3-.73,15.81,15.81,0,0,1,1.71.08,13.51,13.51,0,0,1,1.73.35Zm1.14-22.63c-10.34,0-16.48,3.86-18.46,15.08-1.84,10.44,3.47,14,11.86,14a24.68,24.68,0,0,0,4.27-.31l-2,11.39h8.23l7.09-40.18Z"/><polygon class="cls-1" points="115.43 33.68 112.3 51.38 121.08 51.38 127.94 12.07 119.16 12.07 115.43 33.68"/><path class="cls-1" d="M40,33.68l-3.12,17.7H45.7L50.85,22.2H42.07ZM51.57,12.36a3.6,3.6,0,0,0-3.07-1.18,5.71,5.71,0,0,0-3.68,1.13,5.67,5.67,0,0,0-1.64,3.32,3.58,3.58,0,0,0,.51,3.15,3.54,3.54,0,0,0,2.93,1.15,5.9,5.9,0,0,0,3.67-1.05A5.36,5.36,0,0,0,52,15.63a3.9,3.9,0,0,0-.44-3.27"/><path class="cls-2" d="M128.85,1.37A3.62,3.62,0,0,0,125.78.19a5.63,5.63,0,0,0-3.67,1.14,5.64,5.64,0,0,0-1.64,3.31A3.61,3.61,0,0,0,121,7.8a3.58,3.58,0,0,0,2.94,1.14,5.89,5.89,0,0,0,3.66-1,5.31,5.31,0,0,0,1.72-3.25,3.91,3.91,0,0,0-.44-3.27"/><path class="cls-3" d="M116.82,1.53l-2.59,1.66c-10.34,6.25-22.3,11.61-32.64,4C68.68-2.34,57.8-3.1,45.92,9.2h7.45c6.65-4.12,15.37-3,24.16,3.48A25.37,25.37,0,0,0,93,17.79c8.81,0,17-4.14,22.31-7.25Z"/><path class="cls-1" d="M84.76,74.28c-.24,1.4-.62,3.1-2.71,3.1s-1.88-1.7-1.63-3.1.71-3.08,2.72-3.08S85,73,84.76,74.28m2.42-4a4,4,0,0,0-3.55-1.45,6.27,6.27,0,0,0-4.25,1.4,7.25,7.25,0,0,0-1.9,4.11,4.71,4.71,0,0,0,.58,3.9,4,4,0,0,0,3.4,1.42,6.48,6.48,0,0,0,4.24-1.3,6.76,6.76,0,0,0,2-4,5.11,5.11,0,0,0-.51-4.06"/><path class="cls-1" d="M95.5,68.84H90.25L88.36,79.68h3.38l1.38-8.14h2a.78.78,0,0,1,.83.93l-1.25,7.21h3.38L99.19,73a3.35,3.35,0,0,0-3.69-4.2"/><path class="cls-1" d="M126.83,77.49h-1.49c-.94,0-1.36-.32-1.36-1s.69-1,1.72-1.2c.61-.14,1.29-.33,1.58-.39-.26,1.52-.45,2.55-.45,2.55m.53-8.64a15.67,15.67,0,0,0-5.08.89l-.54,3a11,11,0,0,1,4.69-1.35c.86,0,1.24.37,1.11.91s-.9.81-2.35,1c-2.92.42-4.5,1.54-4.79,3.44a3.09,3.09,0,0,0,3.07,3h6.33l.29-1.72.83-4.77a3.4,3.4,0,0,0-3.56-4.34"/><path class="cls-1" d="M75.7,76.87c-.26.07-1,.21-1.5.32a14.17,14.17,0,0,1-1.91.18c-2.07,0-2.11-1.56-2.09-1.9,0-.13,0-.27,0-.41a4.41,4.41,0,0,1,1.56-2.79,4.89,4.89,0,0,1,1.25-.66,6,6,0,0,1,2.85-.17l.07,0,.28.06.23.07.42-2.4a12.44,12.44,0,0,0-2.66-.36h-.39a6.65,6.65,0,0,0-2.4.41,6.17,6.17,0,0,0-1.94,1.14,6.33,6.33,0,0,0-1.4,1.72,7.05,7.05,0,0,0-.79,2.17,6.1,6.1,0,0,0-.06,2.16,3.5,3.5,0,0,0,2.22,2.84,5.86,5.86,0,0,0,2.31.41h0s.27,0,.71,0h0a13.18,13.18,0,0,0,2.73-.44Z"/><path class="cls-1" d="M120.73,68.93a10.41,10.41,0,0,0-6.08,1c.09-.51.08-.55.18-1.1h-3.1l-1.91,10.84h3.1c.13-.74.28-1.59.44-2.48,0,0,.31-1.63.43-1.94.45-1.11,2-3.89,6.43-3.44Z"/><path class="cls-1" d="M108.81,76.5a13.17,13.17,0,0,1-2.72.52c-.57,0-.94-.15-.77-1.14l.78-4.43h3.47l.46-2.61h-3.47l.72-4.11H103.9l-.72,4.1h-2.3l-.46,2.62h2.3l-.9,5.15c-.43,2.45,1.06,3.08,3,3.08a26.91,26.91,0,0,0,3.47-.44Z"/><path class="cls-1" d="M140.71,76.87c-.26.07-1,.21-1.51.32a14.05,14.05,0,0,1-1.9.18c-2.07,0-2.11-1.56-2.1-1.9,0-.13,0-.27.05-.41a4.46,4.46,0,0,1,1.56-2.79,5.06,5.06,0,0,1,1.25-.66,6,6,0,0,1,2.85-.17l.07,0,.29.06.22.07.43-2.4a12.44,12.44,0,0,0-2.67-.36h-.39a6.65,6.65,0,0,0-2.4.41,6.17,6.17,0,0,0-1.94,1.14,6.52,6.52,0,0,0-1.4,1.72,7.32,7.32,0,0,0-.79,2.17,6.1,6.1,0,0,0-.06,2.16,3.55,3.55,0,0,0,2.22,2.84,5.89,5.89,0,0,0,2.31.41h0s.26,0,.7,0h0a13.18,13.18,0,0,0,2.73-.44Z"/><path class="cls-1" d="M151.54,76.5a13.17,13.17,0,0,1-2.72.52c-.57,0-.94-.15-.77-1.14l.78-4.43h3.47l.46-2.61h-3.47l.72-4.11h-3.38l-.72,4.1h-2.3l-.46,2.62h2.3l-.9,5.15c-.43,2.45,1.06,3.08,3,3.08a26.91,26.91,0,0,0,3.47-.44Z"/><path class="cls-1" d="M31.93,77.49h-1.5c-.94,0-1.35-.32-1.35-1s.68-1,1.71-1.2c.62-.14,1.3-.33,1.58-.39-.25,1.52-.44,2.55-.44,2.55m.53-8.64a15.77,15.77,0,0,0-5.09.89l-.54,3a11,11,0,0,1,4.7-1.35c.86,0,1.23.37,1.1.91s-.89.81-2.35,1c-2.92.42-4.49,1.54-4.79,3.44a3.09,3.09,0,0,0,3.07,3h6.33L35.18,78,36,73.19a3.41,3.41,0,0,0-3.56-4.34"/><path class="cls-1" d="M47.74,68.93a10.39,10.39,0,0,0-6.08,1c.09-.51.07-.55.17-1.1H38.74L36.83,79.68h3.1c.13-.74.28-1.59.43-2.48,0,0,.32-1.63.44-1.94.45-1.11,2-3.89,6.43-3.44Z"/><path class="cls-1" d="M9,71.49l.4-2.23a10.42,10.42,0,0,0-5.94,0S1,70,1,72.19a3,3,0,0,0,.08.77,2.44,2.44,0,0,0,1,1.37,1.89,1.89,0,0,0,.38.23,3.85,3.85,0,0,0,.64.27,11.25,11.25,0,0,0,1.38.39,1.6,1.6,0,0,1,.91.46.73.73,0,0,1,.07.85.91.91,0,0,1-.42.36c-.59.27-1.79.7-4.75,0L-.1,79.24A13.47,13.47,0,0,0,3,79.67H3a9.58,9.58,0,0,0,3.19-.41,3.8,3.8,0,0,0,1.62-1.15,2.8,2.8,0,0,0,.64-1.62,1.09,1.09,0,0,1,0-.12v-.06a2.51,2.51,0,0,0-.36-1.4,2.68,2.68,0,0,0-.5-.59A5,5,0,0,0,6,73.55a.19.19,0,0,0-.1,0h0a7,7,0,0,1-1.72-.63h0a.77.77,0,0,1-.37-.8.91.91,0,0,1,.49-.61,2.46,2.46,0,0,1,.78-.25,8,8,0,0,1,2,0h.23a10.19,10.19,0,0,1,1.67.3"/><path class="cls-1" d="M57.39,76.5a13,13,0,0,1-2.72.52c-.57,0-.94-.15-.77-1.14l.78-4.43h3.48l.46-2.61H55.14l.72-4.11H52.48l-.71,4.1H49.46L49,71.45h2.3l-.9,5.15c-.43,2.45,1.06,3.08,3.05,3.08a27,27,0,0,0,3.46-.44Z"/><path class="cls-1" d="M21.33,68.85H19.58a2.51,2.51,0,0,0-1.82.66,1.57,1.57,0,0,0-1.39-.67h-5.1L9.38,79.68H12.3l1.45-8.5h1.72a.67.67,0,0,1,.71.81l-1.34,7.69h2.92L19,72.48a3,3,0,0,0,.06-.4l.16-.9H21a.67.67,0,0,1,.72.81l-1.34,7.69h2.92l1.24-7.2a2.9,2.9,0,0,0-3.19-3.63"/></svg>