<?xml version="1.0" encoding="UTF-8" standalone="no"?>
<svg
   xmlns:dc="http://purl.org/dc/elements/1.1/"
   xmlns:cc="http://creativecommons.org/ns#"
   xmlns:rdf="http://www.w3.org/1999/02/22-rdf-syntax-ns#"
   xmlns:svg="http://www.w3.org/2000/svg"
   xmlns="http://www.w3.org/2000/svg"
   xmlns:sodipodi="http://sodipodi.sourceforge.net/DTD/sodipodi-0.dtd"
   xmlns:inkscape="http://www.inkscape.org/namespaces/inkscape"
   xml:space="preserve"
   enable-background="new 0 0 100 100"
   viewBox="0 0 83.226997 65.257042"
   height="65.257042"
   width="83.226997"
   y="0px"
   x="0px"
   version="1.1"
   id="svg42"
   sodipodi:docname="performance.svg"
   inkscape:version="1.0.2-2 (e86c870879, 2021-01-15)"><metadata
     id="metadata48"><rdf:RDF><cc:Work
         rdf:about=""><dc:format>image/svg+xml</dc:format><dc:type
           rdf:resource="http://purl.org/dc/dcmitype/StillImage" /><dc:title></dc:title><cc:license
           rdf:resource="http://creativecommons.org/licenses/by-nd/4.0/" /></cc:Work><cc:License
         rdf:about="http://creativecommons.org/licenses/by-nd/4.0/"><cc:permits
           rdf:resource="http://creativecommons.org/ns#Reproduction" /><cc:permits
           rdf:resource="http://creativecommons.org/ns#Distribution" /><cc:requires
           rdf:resource="http://creativecommons.org/ns#Notice" /><cc:requires
           rdf:resource="http://creativecommons.org/ns#Attribution" /></cc:License></rdf:RDF></metadata><defs
     id="defs46" /><sodipodi:namedview
     pagecolor="#ffffff"
     bordercolor="#666666"
     borderopacity="1"
     objecttolerance="10"
     gridtolerance="10"
     guidetolerance="10"
     inkscape:pageopacity="0"
     inkscape:pageshadow="2"
     inkscape:window-width="1280"
     inkscape:window-height="738"
     id="namedview44"
     showgrid="false"
     fit-margin-top="0"
     fit-margin-left="0"
     fit-margin-right="0"
     fit-margin-bottom="0"
     inkscape:zoom="5.27"
     inkscape:cx="42.362"
     inkscape:cy="32.918"
     inkscape:window-x="-6"
     inkscape:window-y="-6"
     inkscape:window-maximized="1"
     inkscape:current-layer="svg42" /><path
     d="m 67.145,12.826 c 3.538,0 6.407,-2.875 6.407,-6.414 C 73.552,2.872 70.683,0 67.145,0 c -3.547,0 -6.42,2.873 -6.42,6.412 0,3.539 2.873,6.414 6.42,6.414 z"
     id="path30" /><path
     d="m 80.437,25.241 -10.755,1.678 c -1.533,0.238 -3.146,-0.783 -3.581,-2.273 L 63.14,14.522 c -0.436,-1.489 -1.926,-3.28 -3.312,-3.979 L 45.143,3.128 C 43.757,2.429 41.39,2.159 39.882,2.528 L 27.003,5.681 c -1.508,0.369 -2.741,1.814 -2.741,3.211 0,1.397 1.234,2.244 2.743,1.882 l 11.27,-2.702 c 1.51,-0.362 3.833,-0.005 5.164,0.792 l 3.649,2.185 c 1.332,0.797 1.335,2.107 0.007,2.912 l -11.298,6.84 c -1.327,0.805 -3.034,2.367 -3.793,3.475 -0.758,1.105 2.134,7.191 2.8,8.594 l 3.52,7.459 c 0.665,1.402 -0.061,2.59 -1.613,2.59 H 22.419 c -1.552,0 -2.719,1.225 -2.591,2.771 l 0.183,1.816 c 0.126,1.548 1.5,2.412 3.053,2.412 h 24.89 c 1.551,0 2.37,-0.807 1.82,-2.258 L 45.415,36.373 c -0.552,-1.451 -1.35,-3.765 -1.773,-5.257 l -0.146,-0.467 c -0.424,-1.493 0.326,-3.332 1.666,-4.113 l 7.84,-4.561 c 1.34,-0.782 3.139,-1.759 3.998,-2.179 0.857,-0.419 1.907,0.462 2.332,1.956 l 2.686,9.426 c 0.424,1.493 2.014,2.447 3.53,2.119 l 14.921,-3.23 c 1.516,-0.329 2.758,-1.646 2.758,-2.929 0,-1.283 -1.257,-2.136 -2.79,-1.897 z"
     id="path32" /><path
     d="m 39.851,51.918 h -6.019 c -1.553,0 -3.858,0.557 -5.125,1.455 l -7.062,4.919 c -1.266,0.897 -1.566,2.622 -0.668,3.889 l 1.398,1.948 c 0.899,1.266 2.628,1.499 3.842,0.533 L 40.465,53.503 c 1.214,-0.966 0.938,-1.585 -0.614,-1.585 z"
     id="path34" /><path
     d="m 32.505,17.918 c 1.552,0 2.822,-0.51 2.822,-1 0,-0.49 -1.271,-1 -2.822,-1 H 2.822 c -1.552,0 -2.822,0.51 -2.822,1 0,0.49 1.271,1 2.822,1 z"
     id="path36" /><path
     d="m 31.006,20.918 c 0,-0.49 -1.271,-1 -2.822,-1 H 6.274 c -1.553,0 -2.822,0.51 -2.822,1 0,0.49 1.27,1 2.822,1 h 21.909 c 1.552,0 2.823,-0.51 2.823,-1 z"
     id="path38" /><path
     d="m 29.576,24.918 c 0,-0.489 -1.27,-1 -2.821,-1 H 8.572 c -1.553,0 -2.823,0.511 -2.823,1 0,0.49 1.271,1 2.823,1 h 18.183 c 1.551,0 2.821,-0.51 2.821,-1 z"
     id="path40" /></svg>
