<?xml version="1.0" encoding="UTF-8" standalone="no"?>
<svg
   xmlns:dc="http://purl.org/dc/elements/1.1/"
   xmlns:cc="http://creativecommons.org/ns#"
   xmlns:rdf="http://www.w3.org/1999/02/22-rdf-syntax-ns#"
   xmlns:svg="http://www.w3.org/2000/svg"
   xmlns="http://www.w3.org/2000/svg"
   xmlns:sodipodi="http://sodipodi.sourceforge.net/DTD/sodipodi-0.dtd"
   xmlns:inkscape="http://www.inkscape.org/namespaces/inkscape"
   version="1.1"
   id="Capa_1"
   x="0px"
   y="0px"
   viewBox="0 0 23.482 31.694"
   xml:space="preserve"
   sodipodi:docname="safety.svg"
   width="23.482"
   height="31.694"
   inkscape:version="1.0.2-2 (e86c870879, 2021-01-15)"><metadata
   id="metadata154"><rdf:RDF><cc:Work
       rdf:about=""><dc:format>image/svg+xml</dc:format><dc:type
         rdf:resource="http://purl.org/dc/dcmitype/StillImage" /><dc:title></dc:title></cc:Work></rdf:RDF></metadata><defs
   id="defs152" /><sodipodi:namedview
   pagecolor="#ffffff"
   bordercolor="#666666"
   borderopacity="1"
   objecttolerance="10"
   gridtolerance="10"
   guidetolerance="10"
   inkscape:pageopacity="0"
   inkscape:pageshadow="2"
   inkscape:window-width="1280"
   inkscape:window-height="738"
   id="namedview150"
   showgrid="false"
   inkscape:zoom="5.8787984"
   inkscape:cx="-12.8374"
   inkscape:cy="19.822201"
   inkscape:window-x="-6"
   inkscape:window-y="-6"
   inkscape:window-maximized="1"
   inkscape:current-layer="Capa_1"
   fit-margin-top="0"
   fit-margin-left="0"
   fit-margin-right="0"
   fit-margin-bottom="0" />
<g
   id="g117"
   transform="translate(-4.106)">
	<path
   d="m 23.112,9.35 c -4.473,2.742 -7.697,6.205 -9.006,7.744 L 10.745,14.461 C 10.656,14.397 8.811,16.035 8.86,16.086 l 6.121,6.223 c 0.045,0.051 0.107,0.074 0.174,0.074 0.012,0 0.031,0 0.047,-0.004 0.08,-0.018 0.148,-0.072 0.178,-0.152 0.986,-2.521 4.242,-7.799 8.4,-11.627 0.074,-0.07 0.1,-0.18 0.059,-0.275 C 23.838,10.324 23.174,9.312 23.112,9.35 Z"
   id="path83" />
	<path
   d="M 27.126,3.842 C 17.858,3.842 16.29,0.324 16.276,0.291 16.208,0.119 16.04,0.004 15.85,0 15.85,0 15.846,0 15.842,0 15.658,0 15.488,0.115 15.414,0.283 15.403,0.32 13.801,3.842 4.568,3.842 4.31,3.842 4.106,4.051 4.106,4.303 v 15.764 c 0,6.453 11.084,11.383 11.553,11.59 0.062,0.027 0.121,0.037 0.188,0.037 0.061,0 0.127,-0.01 0.186,-0.037 0.473,-0.207 11.555,-5.137 11.555,-11.59 V 4.303 C 27.586,4.051 27.381,3.842 27.126,3.842 Z M 25.038,19.15 c 0,5.049 -8.678,8.912 -9.047,9.072 -0.045,0.023 -0.098,0.031 -0.145,0.031 -0.051,0 -0.098,-0.008 -0.146,-0.031 C 15.335,28.062 6.654,24.199 6.654,19.15 V 6.811 c 0,-0.199 0.161,-0.363 0.362,-0.363 7.229,0 8.482,-2.756 8.494,-2.783 0.057,-0.133 0.189,-0.223 0.334,-0.223 0.002,0 0.006,0 0.006,0 0.148,0.002 0.279,0.092 0.332,0.229 0.012,0.025 1.24,2.777 8.494,2.777 0.201,0 0.361,0.164 0.361,0.363 z"
   id="path85" />
	<g
   id="g87">
	</g>
	<g
   id="g89">
	</g>
	<g
   id="g91">
	</g>
	<g
   id="g93">
	</g>
	<g
   id="g95">
	</g>
	<g
   id="g97">
	</g>
	<g
   id="g99">
	</g>
	<g
   id="g101">
	</g>
	<g
   id="g103">
	</g>
	<g
   id="g105">
	</g>
	<g
   id="g107">
	</g>
	<g
   id="g109">
	</g>
	<g
   id="g111">
	</g>
	<g
   id="g113">
	</g>
	<g
   id="g115">
	</g>
</g>
<g
   id="g119"
   transform="translate(-4.106)">
</g>
<g
   id="g121"
   transform="translate(-4.106)">
</g>
<g
   id="g123"
   transform="translate(-4.106)">
</g>
<g
   id="g125"
   transform="translate(-4.106)">
</g>
<g
   id="g127"
   transform="translate(-4.106)">
</g>
<g
   id="g129"
   transform="translate(-4.106)">
</g>
<g
   id="g131"
   transform="translate(-4.106)">
</g>
<g
   id="g133"
   transform="translate(-4.106)">
</g>
<g
   id="g135"
   transform="translate(-4.106)">
</g>
<g
   id="g137"
   transform="translate(-4.106)">
</g>
<g
   id="g139"
   transform="translate(-4.106)">
</g>
<g
   id="g141"
   transform="translate(-4.106)">
</g>
<g
   id="g143"
   transform="translate(-4.106)">
</g>
<g
   id="g145"
   transform="translate(-4.106)">
</g>
<g
   id="g147"
   transform="translate(-4.106)">
</g>
</svg>
